Coordinates
version=1
nRows=11
nColumns=63
inDegrees=yes

Units are S.I. units (second, meters, Newtons, ...)
If the header above contains a line with 'inDegrees', this indicates whether rotational values are in degrees (yes) or radians (no).

endheader
time	pelvis_tilt	pelvis_list	pelvis_rotation	pelvis_tx	pelvis_ty	pelvis_tz	hip_flexion_r	hip_adduction_r	hip_rotation_r	knee_angle_r	knee_angle_r_beta	ankle_angle_r	subtalar_angle_r	mtp_angle_r	hip_flexion_l	hip_adduction_l	hip_rotation_l	knee_angle_l	knee_angle_l_beta	ankle_angle_l	subtalar_angle_l	mtp_angle_l	L5_S1_Flex_Ext	L5_S1_Lat_Bending	L5_S1_axial_rotation	L4_L5_Flex_Ext	L4_L5_Lat_Bending	L4_L5_axial_rotation	L3_L4_Flex_Ext	L3_L4_Lat_Bending	L3_L4_axial_rotation	L2_L3_Flex_Ext	L2_L3_Lat_Bending	L2_L3_axial_rotation	L1_L2_Flex_Ext	L1_L2_Lat_Bending	L1_L2_axial_rotation	L1_T12_Flex_Ext	L1_T12_Lat_Bending	L1_T12_axial_rotation	Abs_r3	Abs_r2	Abs_r1	Abs_t1	Abs_t2	neck_flexion	neck_bending	neck_rotation	arm_flex_r	arm_add_r	arm_rot_r	elbow_flex_r	pro_sup_r	wrist_flex_r	wrist_dev_r	arm_flex_l	arm_add_l	arm_rot_l	elbow_flex_l	pro_sup_l	wrist_flex_l	wrist_dev_l
      0.75000000	     -0.67888602	     -5.45424480	     84.46778332	      0.46155113	      0.73469884	      1.00442438	      5.28585216	      1.42347195	      9.06020076	      9.16598178	      0.15997656	     28.76963629	      1.07954530	      0.00000000	      3.64315894	     -1.15891639	    -13.86035714	     11.12572096	      0.19418046	     32.48713178	      0.22666417	      0.00000000	     -0.06386884	      0.18431534	      3.49163594	     -0.11861083	      0.24513941	      3.70986319	     -0.10493012	      0.44814433	      3.70986319	     -0.07299570	      0.44814433	      3.05518145	     -0.05930861	      0.37585585	      2.83695420	     -0.03649466	      0.28550447	      2.61872696	     -0.45620875	      2.08501204	     19.41943162	      0.00000000	      0.00000000	     22.29241865	     -5.80611251	     -8.13399605	     -6.01006461	    -16.12551660	      8.59956672	     41.89216670	     88.91961064	     -0.25838271	     11.10927615	      5.29915771	    -19.64330317	     39.35898325	     35.86808474	     85.75983612	    -16.83416298	    -13.50973889
      0.76666667	     -0.50908122	     -5.22878893	     84.33545073	      0.46145913	      0.73504033	      1.00302312	      5.52750217	      1.67104097	      9.07145883	     10.06319236	      0.17563584	     29.37407034	      0.78745879	      0.00000000	      3.47105360	     -1.33689749	    -14.04489020	     11.44192592	      0.19969928	     32.59412604	     -0.04497657	      0.00000000	     -0.07296231	      0.21116094	      3.46661481	     -0.13549830	      0.28084405	      3.68327823	     -0.11986977	      0.51341670	      3.68327823	     -0.08338862	      0.51341670	      3.03328796	     -0.06775280	      0.43059938	      2.81662453	     -0.04169066	      0.32708829	      2.59996111	     -0.52116246	      2.38869476	     19.28027158	      0.00000000	      0.00000000	     21.64906442	     -6.17314428	     -8.81593172	     -6.63963141	    -16.28701470	      9.31253685	     42.38852414	     88.81842225	      0.87754313	     11.44459465	      4.06164324	    -20.13581525	     40.55406426	     36.74301876	     86.37021509	    -16.69780916	    -14.11155322
      0.78333333	     -0.31850265	     -5.32364176	     83.68724789	      0.46169043	      0.73503661	      1.00259309	      6.42999409	      2.12174785	     10.42060623	     11.41372286	      0.19920704	     29.63889500	     -0.82453371	      0.00000000	      3.76057223	     -1.58269347	    -14.04923246	     12.00824252	      0.20958337	     32.68131323	     -1.00037232	      0.00000000	     -0.05853663	      0.24545550	      3.66406541	     -0.10870837	      0.32645582	      3.89306950	     -0.09616983	      0.59680050	      3.89306950	     -0.06690151	      0.59680050	      3.20605724	     -0.05435711	      0.50053286	      2.97705315	     -0.03344783	      0.38021057	      2.74804906	     -0.41812128	      2.77664171	     20.37843262	      0.00000000	      0.00000000	     21.04291090	     -7.99064437	    -11.33983912	     -7.72998571	    -16.17135605	      6.95095316	     43.69625620	     88.69035908	      6.78205434	     14.33778540	      4.18102299	    -20.60602381	     45.46230568	     37.01137480	     86.44211487	    -18.75284734	    -14.27949787
      0.80000000	     -0.09816686	     -5.35414069	     83.24111070	      0.46178970	      0.73518127	      1.00160824	      7.17659919	      2.54913889	     10.89254587	     12.63754238	      0.22056672	     30.11720792	     -1.54273620	      0.00000000	      3.94268721	     -1.87212705	    -14.35535847	     12.50008896	      0.21816771	     32.89033016	     -1.36257802	      0.00000000	     -0.06217743	      0.28683733	      3.67949357	     -0.11546971	      0.38149365	      3.90946192	     -0.10215130	      0.69741629	      3.90946192	     -0.07106259	      0.69741629	      3.21955687	     -0.05773796	      0.58491869	      2.98958853	     -0.03552818	      0.44431103	      2.75962018	     -0.44412717	      3.24476129	     20.46423939	      0.00000000	      0.00000000	     20.48546599	     -8.75992668	    -12.18084797	     -8.47477850	    -16.49677285	      7.00868124	     45.27032466	     88.45458645	      8.86086819	     14.48831021	      3.15592463	    -20.97898128	     46.92875176	     37.97501905	     86.55698016	    -18.16843170	    -13.82167010
      0.81666667	      0.01738744	     -5.08245301	     82.91369572	      0.46185115	      0.73561966	      0.99997665	      7.39815884	      2.78621025	     11.17368454	     13.47681955	      0.23521487	     30.71039937	     -1.91613805	      0.00000000	      3.72526592	     -1.97841674	    -14.50611706	     12.77269304	      0.22292555	     33.12624489	     -1.51319925	      0.00000000	     -0.11596954	      0.31607549	      3.64319459	     -0.21536704	      0.42038041	      3.87089425	     -0.19052636	      0.76850596	      3.87089425	     -0.13254159	      0.76850596	      3.18779527	     -0.10768932	      0.64454115	      2.96009560	     -0.06626500	      0.48960094	      2.73239594	     -0.82835885	      3.57550920	     20.26235535	      0.00000000	      0.00000000	     19.77129610	     -8.85146517	    -12.35970313	     -9.27025775	    -16.73489911	      6.81438598	     47.18726132	     88.23787396	      9.81023319	     14.10652345	      2.04505633	    -21.33146492	     47.67809253	     39.02928515	     86.59319424	    -17.67764659	    -13.69110931
      0.83333333	      0.23276071	     -5.20740285	     81.77620997	      0.46284556	      0.73535106	      0.99938726	      8.35305318	      3.46470823	     13.10963268	     14.88511791	      0.25979432	     30.96926850	     -3.70003717	      0.00000000	      4.02568556	     -2.33443327	    -15.20676380	     13.32241625	      0.23252003	     33.79809361	     -1.79559369	      0.00000000	     -0.12555864	      0.36668324	      3.85625104	     -0.23317494	      0.48768872	      4.09726673	     -0.20628028	      0.89155364	      4.09726673	     -0.14350096	      0.89155364	      3.37421966	     -0.11659375	      0.74774047	      3.13320397	     -0.07174420	      0.56799235	      2.89218828	     -0.89685277	      4.14799420	     21.44731139	      0.00000000	      0.00000000	     19.28110388	     -9.66758980	    -12.87463534	    -10.53885076	    -16.56339704	      4.18266287	     49.24835503	     88.32023608	     12.47764256	     14.30844474	      1.76391729	    -21.66310917	     48.84356102	     40.74530844	     86.16124536	    -14.55318044	    -10.11987837
      0.85000000	      0.28690864	     -4.91374962	     81.43746227	      0.46326401	      0.73545528	      0.99827772	      8.54654597	      3.68532701	     13.37511484	     15.67178852	      0.27352431	     31.55815885	     -3.98071584	      0.00000000	      3.84026293	     -2.38283198	    -15.01045550	     13.48817701	      0.23541310	     34.51238552	     -1.72479671	      0.00000000	     -0.18849271	      0.38512876	      3.82064719	     -0.35004982	      0.51222125	      4.05943764	     -0.30967468	      0.93640207	      4.05943764	     -0.21542832	      0.93640207	      3.34306629	     -0.17503434	      0.78535457	      3.10427584	     -0.10770474	      0.59656445	      2.86548539	     -1.34638461	      4.35665357	     21.24929348	      0.00000000	      0.00000000	     18.42254911	     -9.36319935	    -12.75845537	    -10.94721796	    -16.77026516	      3.98938013	     50.72306479	     88.30277660	     12.68453970	     13.77715212	      1.16471493	    -21.90485204	     49.08184272	     41.77785482	     86.32639813	    -14.25329866	    -10.28256910
      0.86666667	      0.28038807	     -5.06513819	     80.77747562	      0.46433479	      0.73458734	      0.99833885	      9.56038052	      4.11933987	     14.25637143	     17.13559318	      0.29907252	     32.14442119	     -5.00953342	      0.00000000	      4.33313443	     -2.55210683	    -15.20718835	     14.03384292	      0.24493677	     35.49378037	     -1.57498387	      0.00000000	     -0.19439448	      0.39148848	      3.91500824	     -0.36100998	      0.52067968	      4.15969625	     -0.31937068	      0.95186510	      4.15969625	     -0.22217345	      0.95186510	      3.42563221	     -0.18051471	      0.79832332	      3.18094419	     -0.11107700	      0.60641566	      2.93625618	     -1.38854030	      4.42859602	     21.77410131	      0.00000000	      0.00000000	     17.81100107	     -8.67433371	    -12.41387478	    -11.39628041	    -16.72548759	      3.20826991	     51.63494229	     88.58225203	     12.09171421	     12.33401855	      0.96699678	    -22.10527807	     49.12853145	     42.90983077	     87.08764469	    -13.89215780	     -9.91696619
      0.88333333	      0.11421444	     -4.94615645	     80.20926960	      0.46570138	      0.73393493	      0.99838041	     10.02307361	      4.40715384	     15.74482548	     18.09745030	      0.31586009	     32.42247998	     -6.79380489	      0.00000000	      4.42699682	     -2.54134877	    -15.80581331	     14.30780379	      0.24971828	     36.40142803	     -0.70517990	      0.00000000	     -0.23249640	      0.36247895	      3.99045868	     -0.43176906	      0.48209700	      4.23986235	     -0.38196833	      0.88133131	      4.23986235	     -0.26572013	      0.88133131	      3.49165135	     -0.21589615	      0.73916707	      3.24224768	     -0.13284844	      0.56147989	      2.99284401	     -1.66069852	      4.10043435	     22.19373404	      0.00000000	      0.00000000	     16.67669649	     -7.58688089	    -12.56975840	    -11.25052118	    -16.78774473	      3.65744687	     51.45978288	     88.79369691	     10.12294598	     10.00826138	      1.05918462	    -22.38644136	     49.74270700	     43.53421291	     87.88114012	    -15.59844162	    -11.04883880
      0.90000000	      0.04812704	     -4.98263789	     80.11078329	      0.46630752	      0.73293754	      0.99866164	     10.58836089	      4.65828998	     16.23072531	     18.99142642	      0.33146292	     32.64587920	     -7.94014165	      0.00000000	      4.82738150	     -2.64296936	    -15.86507086	     14.85256867	      0.25922623	     37.28730224	      0.03613255	      0.00000000	     -0.24728134	      0.34630278	      4.01628648	     -0.45922617	      0.46058270	      4.26730438	     -0.40625851	      0.84200058	      4.26730438	     -0.28261784	      0.84200058	      3.51425067	     -0.22962545	      0.70618063	      3.26323276	     -0.14129656	      0.53642300	      3.01221486	     -1.76630588	      3.91744629	     22.33738050	      0.00000000	      0.00000000	     15.60157615	     -6.35763348	    -12.58646835	    -11.02727157	    -16.88861318	      4.01209190	     50.80734558	     88.94078946	      7.79189029	      7.79320063	      1.46505641	    -22.29061858	     50.89830635	     43.02451408	     88.18665205	    -18.82656101	    -14.08639635
      0.91666667	      0.14667310	     -5.07017298	     80.12751422	      0.46669057	      0.73184805	      0.99896347	     11.06902829	      5.01164291	     16.41042768	     19.74600773	      0.34463285	     32.67463006	     -8.95044396	      0.00000000	      5.25863553	     -2.88927665	    -15.68126680	     15.48752015	      0.27030822	     37.97154789	      0.37283842	      0.00000000	     -0.25364689	      0.34991542	      4.05562870	     -0.47104765	      0.46538750	      4.30910550	     -0.41671648	      0.85078434	      4.30910550	     -0.28989303	      0.85078434	      3.54867512	     -0.23553651	      0.71354752	      3.29519832	     -0.14493383	      0.54201898	      3.04172153	     -1.81177439	      3.95831317	     22.55619016	      0.00000000	      0.00000000	     14.51347102	     -5.21314611	    -12.67828063	    -10.80621877	    -16.97766051	      4.13576481	     49.83962920	     89.03806703	      5.22764197	      5.80529655	      1.95900919	    -21.83465596	     51.60707892	     41.87341076	     88.32980135	    -21.92058589	    -17.11558739
